<svg width="104" height="104" viewBox="0 0 104 104" fill="none" xmlns="http://www.w3.org/2000/svg">
<rect x="1" y="1" width="102" height="102" rx="51" fill="white"/>
<rect x="1" y="1" width="102" height="102" rx="51" stroke="#F4F0EF" stroke-width="2"/>
<rect x="4" y="4" width="96" height="96" rx="48" stroke="white" stroke-width="4"/>
<path d="M34.646 61.1684V50.5243C34.646 49.7309 34.9245 49.0613 35.4814 48.5153C36.0387 47.9693 36.7138 47.6963 37.5067 47.6963C38.2997 47.6963 38.9693 47.9693 39.5157 48.5153C40.0617 49.0613 40.3347 49.7309 40.3347 50.5243V61.2016C40.3347 61.9946 40.0617 62.664 39.5157 63.21C38.9693 63.7564 38.2997 64.0296 37.5067 64.0296C36.7138 64.0296 36.0387 63.751 35.4814 63.1937C34.9245 62.6368 34.646 61.9617 34.646 61.1684ZM49.1734 61.2016V50.5243C49.1734 49.7309 49.4464 49.0613 49.9924 48.5153C50.5388 47.9693 51.2084 47.6963 52.0014 47.6963C52.7943 47.6963 53.464 47.9693 54.0104 48.5153C54.5564 49.0613 54.8294 49.7309 54.8294 50.5243V61.2016C54.8294 61.9946 54.5564 62.664 54.0104 63.21C53.464 63.7564 52.7943 64.0296 52.0014 64.0296C51.2084 64.0296 50.5388 63.7564 49.9924 63.21C49.4464 62.664 49.1734 61.9946 49.1734 61.2016ZM30.6385 73.8576C29.7799 73.8576 29.0499 73.557 28.4487 72.9558C27.8475 72.3546 27.5469 71.6246 27.5469 70.7659C27.5469 69.9069 27.8475 69.1768 28.4487 68.5755C29.0499 67.9747 29.7799 67.6743 30.6385 67.6743H73.3642C74.2229 67.6743 74.9528 67.9747 75.554 68.5755C76.1553 69.1768 76.4559 69.9069 76.4559 70.7659C76.4559 71.6246 76.1553 72.3546 75.554 72.9558C74.9528 73.557 74.2229 73.8576 73.3642 73.8576H30.6385ZM63.668 61.1684V50.5243C63.668 49.7309 63.9467 49.0613 64.504 48.5153C65.0609 47.9693 65.7358 47.6963 66.5287 47.6963C67.322 47.6963 67.9917 47.9693 68.5377 48.5153C69.0837 49.0613 69.3567 49.7309 69.3567 50.5243V61.2016C69.3567 61.9946 69.0837 62.664 68.5377 63.21C67.9917 63.7564 67.322 64.0296 66.5287 64.0296C65.7358 64.0296 65.0609 63.751 64.504 63.1937C63.9467 62.6368 63.668 61.9617 63.668 61.1684ZM73.2324 44.0189H30.4385C29.6354 44.0189 28.9527 43.7378 28.3904 43.1754C27.828 42.6131 27.5469 41.9304 27.5469 41.1274V39.3167C27.5469 38.7567 27.6923 38.2498 27.9832 37.7959C28.2741 37.3421 28.6605 36.9849 29.1423 36.7244L49.2422 26.691C50.1009 26.2481 51.0206 26.0266 52.0014 26.0266C52.9822 26.0266 53.9019 26.2481 54.7605 26.691L74.6779 36.6328C75.2375 36.8933 75.6736 37.2894 75.9863 37.821C76.2993 38.353 76.4559 38.9319 76.4559 39.5576V40.7622C76.4559 41.6652 76.1444 42.4336 75.5214 43.0675C74.898 43.7018 74.135 44.0189 73.2324 44.0189Z" fill="#39A968"/>
</svg>
