<svg width="19" height="19" viewBox="0 0 19 19" fill="none" xmlns="http://www.w3.org/2000/svg">
<path d="M15.5864 5.73438C16.9497 5.73438 18.0552 4.62909 18.0552 3.26562C18.0552 1.90216 16.9497 0.796875 15.5864 0.796875C14.2231 0.796875 13.1177 1.90216 13.1177 3.26562C13.1177 4.62909 14.2231 5.73438 15.5864 5.73438Z" fill="black"/>
<path d="M1.76855 1.49695C0.791992 1.49695 0 2.28882 0 3.26562C0 4.24243 0.791992 5.03424 1.76855 5.03424H9.80127C10.7783 5.03424 11.5698 4.24243 11.5698 3.26562C11.5698 2.28882 10.7783 1.49695 9.80127 1.49695H1.76855Z" fill="black"/>
<path d="M15.5864 12.4219C16.9497 12.4219 18.0552 11.3166 18.0552 9.95312C18.0552 8.58966 16.9497 7.48438 15.5864 7.48438C14.2231 7.48438 13.1177 8.58966 13.1177 9.95312C13.1177 11.3166 14.2231 12.4219 15.5864 12.4219Z" fill="black"/>
<path d="M1.76855 8.18445C0.791992 8.18445 0 8.97632 0 9.95312C0 10.9299 0.791992 11.7217 1.76855 11.7217H9.80127C10.7783 11.7217 11.5698 10.9299 11.5698 9.95312C11.5698 8.97632 10.7783 8.18445 9.80127 8.18445H1.76855Z" fill="black"/>
<path d="M15.5864 18.7031C16.9497 18.7031 18.0552 17.5978 18.0552 16.2344C18.0552 14.8709 16.9497 13.7656 15.5864 13.7656C14.2231 13.7656 13.1177 14.8709 13.1177 16.2344C13.1177 17.5978 14.2231 18.7031 15.5864 18.7031Z" fill="black"/>
<path d="M1.76855 14.4657C0.791992 14.4657 0 15.2576 0 16.2344C0 17.2112 0.791992 18.003 1.76855 18.003H9.80127C10.7783 18.003 11.5698 17.2112 11.5698 16.2344C11.5698 15.2576 10.7783 14.4657 9.80127 14.4657H1.76855Z" fill="black"/>
</svg>
