<svg width="24" height="25" viewBox="0 0 24 25" fill="none" xmlns="http://www.w3.org/2000/svg">
<path d="M21.9566 14.231C21.8862 13.968 21.7489 13.7277 21.5583 13.5334C21.3676 13.3391 21.13 13.1973 20.8684 13.1219C20.6068 13.0464 20.3302 13.0398 20.0653 13.1028C19.8004 13.1657 19.5563 13.296 19.3566 13.481C18.5466 14.181 17.7766 14.921 16.9866 15.651C16.9605 15.6724 16.9399 15.6999 16.9266 15.731C17.1746 16.0891 17.323 16.5067 17.3566 16.941C17.3701 17.2536 17.3204 17.5657 17.2106 17.8587C17.1008 18.1517 16.9331 18.4196 16.7175 18.6464C16.5019 18.8732 16.2429 19.0542 15.9558 19.1787C15.6687 19.3032 15.3595 19.3686 15.0466 19.371C13.9566 19.371 12.8566 19.371 11.7666 19.371C11.7166 19.371 11.6366 19.371 11.6066 19.371C11.5766 19.371 11.3566 19.151 11.3566 19.061C11.3707 18.9445 11.4277 18.8375 11.5166 18.761C11.603 18.717 11.7004 18.6996 11.7966 18.711C12.8566 18.711 13.9166 18.711 14.9766 18.711C15.2048 18.7287 15.4341 18.6991 15.6503 18.624C15.8665 18.5489 16.0648 18.4299 16.2327 18.2745C16.4007 18.119 16.5347 17.9306 16.6264 17.7209C16.7181 17.5112 16.7654 17.2848 16.7654 17.056C16.7654 16.8272 16.7181 16.6008 16.6264 16.3911C16.5347 16.1814 16.4007 15.9929 16.2327 15.8375C16.0648 15.6821 15.8665 15.5631 15.6503 15.488C15.4341 15.4129 15.2048 15.3832 14.9766 15.401H8.35663C7.97996 15.423 7.60728 15.4901 7.24663 15.601C6.38083 15.933 5.62314 16.4969 5.05663 17.231L9.51663 21.691C9.62831 21.5845 9.76014 21.5013 9.90438 21.4463C10.0486 21.3914 10.2024 21.3658 10.3566 21.371C12.1066 21.371 13.8466 21.371 15.6066 21.371C16.1637 21.3853 16.7161 21.2656 17.2172 21.0219C17.7184 20.7783 18.1537 20.4179 18.4866 19.971C19.5866 18.511 20.6466 17.031 21.6966 15.551C21.8465 15.3701 21.9488 15.1545 21.9942 14.924C22.0396 14.6935 22.0267 14.4553 21.9566 14.231Z" fill="black"/>
<path d="M4.57663 17.741C4.38969 17.566 4.14272 17.4693 3.88663 17.471C3.75096 17.4689 3.61628 17.4944 3.49078 17.5459C3.36528 17.5975 3.25159 17.6741 3.15663 17.771L2.15663 18.771C1.92663 19.011 1.92663 19.161 2.15663 19.401L4.46663 21.701C5.46663 22.701 6.37663 23.611 7.33663 24.561C7.53663 24.761 7.70663 24.791 7.88663 24.561C8.24663 24.211 8.60663 23.871 8.94663 23.511C9.12101 23.3255 9.21809 23.0806 9.21809 22.826C9.21809 22.5714 9.12101 22.3265 8.94663 22.141C7.53663 20.671 6.05663 19.211 4.57663 17.741Z" fill="black"/>
<path d="M14.2666 11.671C14.2766 11.5312 14.2766 11.3908 14.2666 11.251V10.971L10.0266 11.601V11.781L10.1766 12.411L10.2466 12.571L14.2466 11.981L14.2666 11.671Z" fill="black"/>
<path d="M7.87663 7.45099C8.02766 7.7643 8.20849 8.06234 8.41663 8.34099C8.59663 8.59099 8.78663 8.80099 8.96663 9.01099C9.12357 9.18478 9.2549 9.38008 9.35663 9.59099C9.48697 9.83154 9.59734 10.0824 9.68663 10.341C9.72385 10.4845 9.81291 10.6092 9.93663 10.691C10.0634 10.7743 10.2171 10.8064 10.3666 10.781L13.9266 10.251C14.0368 10.2614 14.1477 10.2406 14.2466 10.191C14.3467 10.143 14.4302 10.0665 14.4866 9.97099C14.6766 9.67099 14.8966 9.36099 15.1266 9.05099C15.5878 8.46628 15.9773 7.8284 16.2866 7.15099C16.4207 6.82885 16.5212 6.49375 16.5866 6.15099C16.7065 5.55025 16.7065 4.93174 16.5866 4.33099C16.5282 4.07903 16.4513 3.83169 16.3566 3.59099C16.173 3.15315 15.9197 2.74791 15.6066 2.39099C15.2864 2.03157 14.9119 1.72451 14.4966 1.48099C14.1816 1.29321 13.8461 1.14222 13.4966 1.03099C13.1265 0.913641 12.7439 0.83981 12.3566 0.810995C11.9813 0.766127 11.602 0.766127 11.2266 0.810995C10.885 0.871556 10.5501 0.965334 10.2266 1.09099C9.77754 1.27039 9.36176 1.52391 8.99663 1.84099C8.63436 2.16496 8.32407 2.5427 8.07663 2.96099C7.84963 3.33327 7.67149 3.73323 7.54663 4.15099C7.4353 4.53167 7.37148 4.92465 7.35663 5.32099C7.35481 5.6883 7.39848 6.05442 7.48663 6.411C7.57542 6.77175 7.70632 7.12081 7.87663 7.45099Z" fill="black"/>
<path d="M12.2066 13.891C12.5339 13.8698 12.852 13.774 13.1366 13.611C13.4747 13.4145 13.7543 13.1315 13.9466 12.791L10.6866 13.281C10.8448 13.4597 11.0391 13.6028 11.2566 13.701C11.5505 13.8485 11.8786 13.9142 12.2066 13.891Z" fill="black"/>
</svg>
